<svg id="Layer_1" data-name="Layer 1" xmlns="http://www.w3.org/2000/svg" width="247.57" height="119.73" viewBox="0 0 247.57 119.73"><title>Google Developers logo - Brandlogos.net</title><path d="M319.14,384l40.11-23.12c9.45-5.68,12.71-17.44,7.09-26.89s-17.44-12.71-26.89-7.09L270.54,367Z" transform="translate(-260.22 -324.13)" style="fill:#ea4335"/><path d="M349.35,443.87a19.87,19.87,0,0,0,17-9.9,19.34,19.34,0,0,0-7.09-26.89L289.89,367a19.66,19.66,0,0,0-19.8,34l69.36,40.11A19.84,19.84,0,0,0,349.35,443.87Z" transform="translate(-260.22 -324.13)" style="fill:#4285f4"/><path d="M418.65,443.87a20.24,20.24,0,0,0,9.9-2.81l69.36-40.11-48.6-17.44-40.56,23.57c-9.45,5.68-12.71,17.44-7.09,26.89A19.32,19.32,0,0,0,418.65,443.87Z" transform="translate(-260.22 -324.13)" style="fill:#fbbc04"/><path d="M488,403.82a19.87,19.87,0,0,0,17-9.9A19.34,19.34,0,0,0,497.91,367l-69.3-40.11a19.66,19.66,0,1,0-19.8,34L478.11,401A17.62,17.62,0,0,0,488,403.82Z" transform="translate(-260.22 -324.13)" style="fill:#0f9d58"/></svg>