<?xml version="1.0" encoding="UTF-8" standalone="no"?>
<svg
   version="1.1"
   id="Layer_1"
   x="0px"
   y="0px"
   viewBox="0 0 63.999998 64.000001"
   xml:space="preserve"
   sodipodi:docname="favicon.svg"
   inkscape:version="1.3.2 (091e20e, 2023-11-25, custom)"
   width="64"
   height="64"
   xmlns:inkscape="http://www.inkscape.org/namespaces/inkscape"
   xmlns:sodipodi="http://sodipodi.sourceforge.net/DTD/sodipodi-0.dtd"
   xmlns="http://www.w3.org/2000/svg"
   xmlns:svg="http://www.w3.org/2000/svg"><defs
     id="defs1"><rect
       x="35.913742"
       y="6.1805043"
       width="32.572929"
       height="18.708553"
       id="rect2" /><rect
       x="30.512432"
       y="97.141617"
       width="61.647568"
       height="18.68108"
       id="rect1" /><rect
       x="30.512432"
       y="97.141617"
       width="128.03702"
       height="35.200195"
       id="rect1-8" /></defs><sodipodi:namedview
     id="namedview1"
     pagecolor="#000000"
     bordercolor="#000000"
     borderopacity="0.25"
     inkscape:showpageshadow="2"
     inkscape:pageopacity="0.0"
     inkscape:pagecheckerboard="0"
     inkscape:deskcolor="#ffffff"
     inkscape:zoom="4.8149596"
     inkscape:cx="10.488146"
     inkscape:cy="25.545385"
     inkscape:window-width="1440"
     inkscape:window-height="830"
     inkscape:window-x="-6"
     inkscape:window-y="-6"
     inkscape:window-maximized="1"
     inkscape:current-layer="g3" /><style
     type="text/css"
     id="style1"><![CDATA[
	.st0{fill-rule:evenodd;clip-rule:evenodd;}
]]></style><g
     id="g1"><circle
       style="fill:#009dff;fill-opacity:1;fill-rule:evenodd;stroke:none;stroke-width:0.594754;stroke-linecap:round;stroke-linejoin:round;stroke-opacity:1;paint-order:stroke fill markers"
       id="path3"
       cx="32"
       cy="32"
       r="32" /><path
       id="rect3"
       style="fill-rule:evenodd;stroke-width:0.492771;stroke-linecap:round;stroke-linejoin:round;paint-order:stroke fill markers;fill:#009dff;fill-opacity:1"
       d="M 11.193359 43.226562 C 9.8323893 43.226562 8.4858891 44.377583 8.7382812 45.755859 L 12.064453 63.919922 L 52.087891 63.919922 L 55.414062 45.755859 C 55.666454 44.377583 54.318001 43.226562 52.957031 43.226562 L 11.193359 43.226562 z " /><g
       id="g3"
       transform="translate(-6.4999994,-12.000001)"><path
         style="font-size:17.3333px;line-height:1.5;font-family:'Winky Sans';-inkscape-font-specification:'Winky Sans';text-orientation:upright;white-space:pre;fill:#ffffff;fill-opacity:1;fill-rule:evenodd;stroke-width:1.02088"
         d="m 21.350837,64.108526 q 0,-0.135026 0.06957,-0.198039 0.06957,-0.07201 0.200014,-0.10802 0.347853,-0.09001 0.521779,-0.378067 0.182624,-0.297047 0.113053,-0.729124 -0.03478,-0.279048 -0.08696,-0.531095 -0.0435,-0.261043 -0.0435,-0.540096 0,-0.351057 0.121748,-0.567096 0.121748,-0.225043 0.313067,-0.342061 0.191319,-0.12602 0.408728,-0.171029 0.217409,-0.04503 0.408728,-0.04503 0.121748,0 0.234799,0.01802 0.121749,0.009 0.226104,0.027 0.121749,0.01802 0.182624,0.10802 0.06089,0.09001 0.06089,0.216037 v 0.04503 q 0,0.144027 -0.07827,0.225043 -0.06957,0.07201 -0.208711,0.05401 -0.08696,-0.01802 -0.156537,-0.02701 -0.06088,-0.009 -0.11305,-0.009 -0.295674,0 -0.49569,0.225044 -0.200018,0.216032 -0.121749,0.774133 l 0.104356,0.720123 q 0.05217,0.360068 -0.06957,0.693125 -0.113054,0.324058 -0.443514,0.504085 -0.0435,0.027 -0.0435,0.05401 0,0.027 0.0435,0.05401 0.33046,0.171028 0.443514,0.504091 0.121748,0.333058 0.06957,0.69312 l -0.104356,0.720123 q -0.07827,0.549106 0.121749,0.77414 0.200016,0.225042 0.49569,0.225042 0.0435,0 0.104356,-0.009 0.06088,-0.009 0.139143,-0.01806 0.147836,-0.02698 0.226102,0.04504 0.08696,0.06302 0.08696,0.216033 v 0.05403 q 0,0.126021 -0.06089,0.216041 -0.06088,0.09001 -0.182624,0.108022 -0.104355,0.01806 -0.226104,0.02698 -0.113051,0.01806 -0.234799,0.01806 -0.191319,0 -0.408728,-0.04504 -0.217409,-0.04504 -0.408728,-0.171036 -0.191319,-0.11702 -0.313067,-0.342054 -0.121748,-0.216042 -0.121748,-0.567104 0,-0.288054 0.0435,-0.540097 0.05217,-0.252043 0.08696,-0.531092 0.06957,-0.432075 -0.113053,-0.720129 -0.173926,-0.297051 -0.521779,-0.387067 -0.130444,-0.03599 -0.200014,-0.09902 -0.06957,-0.07201 -0.06957,-0.207034 z m 34.298326,0 v 0.03599 q 0,0.135025 -0.06957,0.207035 -0.06957,0.06302 -0.200014,0.09902 -0.347853,0.09001 -0.521779,0.387067 -0.173926,0.288052 -0.113053,0.720129 0.0435,0.279048 0.08696,0.531092 0.0435,0.252042 0.0435,0.540089 0,0.351062 -0.121748,0.567104 -0.121747,0.225035 -0.313067,0.342055 -0.191318,0.126028 -0.408727,0.171035 -0.21741,0.04504 -0.408728,0.04504 -0.113052,0 -0.2348,-0.01806 -0.121749,-0.009 -0.226104,-0.02698 -0.121748,-0.01805 -0.182624,-0.108021 -0.06089,-0.09001 -0.06089,-0.216034 v -0.05403 q 0,-0.153028 0.07827,-0.216042 0.08696,-0.07201 0.234799,-0.04504 0.07827,0.009 0.139143,0.01806 0.06089,0.009 0.104356,0.009 0.304373,0 0.495692,-0.225035 0.200016,-0.225042 0.121747,-0.774142 l -0.104353,-0.720122 q -0.05217,-0.360063 0.06089,-0.69312 0.121748,-0.333062 0.452207,-0.504091 0.0435,-0.02701 0.0435,-0.05401 0,-0.027 -0.0435,-0.05401 -0.330459,-0.180029 -0.452207,-0.504086 -0.113054,-0.333056 -0.06089,-0.693125 l 0.104356,-0.720123 q 0.07827,-0.558101 -0.121746,-0.774134 -0.19132,-0.225043 -0.495693,-0.225043 -0.05217,0 -0.121749,0.009 -0.06089,0.009 -0.147837,0.027 -0.139138,0.01802 -0.217409,-0.05401 -0.06957,-0.08102 -0.06957,-0.225043 V 60.8679 q 0,-0.126024 0.06089,-0.216037 0.06089,-0.09002 0.182625,-0.10802 0.104355,-0.01802 0.226104,-0.02701 0.121748,-0.01802 0.234799,-0.01802 0.191318,0 0.408728,0.04503 0.217409,0.04503 0.408728,0.171029 0.191319,0.117018 0.313066,0.342062 0.121748,0.216038 0.121748,0.567095 0,0.279053 -0.0435,0.540096 -0.0435,0.252047 -0.08696,0.531096 -0.06089,0.432076 0.113053,0.729124 0.173926,0.288052 0.521778,0.378066 0.130445,0.03599 0.200015,0.108019 0.06957,0.06302 0.06957,0.19804 z"
         id="text1-4"
         aria-label="{             }" /><path
         style="font-size:12px;line-height:1.5;font-family:REM;-inkscape-font-specification:REM;text-align:center;text-orientation:upright;text-anchor:middle;white-space:pre;fill:#000000;fill-opacity:1;fill-rule:evenodd;stroke:#000000;stroke-width:0.25;stroke-linecap:round;stroke-linejoin:round;stroke-dasharray:none;stroke-opacity:1;paint-order:stroke fill markers"
         d="m 25.308336,66.285055 v -4.317058 h 0.653726 v 3.737337 h 2.374382 v 0.579721 z m 5.340749,0.06167 q -0.561218,0 -0.974421,-0.197352 -0.413204,-0.19735 -0.641392,-0.592053 -0.228187,-0.40087 -0.228187,-0.986757 v -2.602568 h 0.659893 v 2.485391 q 0,0.696896 0.314529,0.986757 0.320695,0.289859 0.888081,0.289859 0.573551,0 0.881912,-0.289859 0.314528,-0.289861 0.314528,-0.986757 v -2.485391 h 0.629058 v 2.602568 q 0,0.585887 -0.234356,0.986757 -0.228186,0.394703 -0.641391,0.592053 -0.413204,0.197352 -0.968254,0.197352 z m 2.824594,-0.06167 v -4.317058 h 0.653726 v 4.317058 z m 3.083615,0.06167 q -0.357699,0 -0.672227,-0.04934 -0.308361,-0.04934 -0.55505,-0.117177 l -0.363866,-0.104844 0.111009,-0.499545 0.419372,0.074 q 0.234354,0.04934 0.524214,0.08017 0.296026,0.03083 0.530381,0.03083 0.487211,0 0.7339,-0.166515 0.252856,-0.172682 0.252856,-0.493376 0,-0.166516 -0.08017,-0.283693 -0.08017,-0.117178 -0.308361,-0.228188 -0.228188,-0.11101 -0.672228,-0.240522 -0.524214,-0.154181 -0.832575,-0.302194 -0.308362,-0.15418 -0.44404,-0.363866 -0.129512,-0.215853 -0.129512,-0.555051 0,-0.431705 0.215853,-0.696895 0.22202,-0.271359 0.598221,-0.394703 0.3762,-0.129512 0.832574,-0.129512 0.277526,0 0.573552,0.04317 0.296028,0.04317 0.585887,0.129512 l 0.240522,0.06167 -0.09868,0.493378 -0.320696,-0.04934 q -0.228187,-0.037 -0.474875,-0.06784 -0.246689,-0.03083 -0.481044,-0.03083 -0.487212,0 -0.746235,0.160347 -0.259022,0.160348 -0.259022,0.474877 0,0.160348 0.08017,0.26519 0.08634,0.104843 0.320695,0.191184 0.240522,0.08634 0.696897,0.222021 0.511879,0.135678 0.814075,0.302194 0.308359,0.166514 0.437872,0.388534 0.135679,0.222021 0.135679,0.548883 0,0.450208 -0.222021,0.740068 -0.222019,0.289859 -0.59822,0.431706 -0.376201,0.135678 -0.84491,0.135678 z m 2.516231,-0.06167 v -4.317058 h 1.856334 q 0.474877,0 0.814075,0.166514 0.339197,0.166516 0.518046,0.481045 0.17885,0.314528 0.17885,0.764736 0,0.450207 -0.185017,0.783237 -0.185016,0.326863 -0.524215,0.505712 -0.339197,0.17885 -0.801739,0.17885 h -1.208775 l 0.0062,1.436964 z m 0.653726,-2.016683 h 1.122435 q 0.437873,0 0.678394,-0.215853 0.240522,-0.22202 0.240522,-0.659893 0,-0.450207 -0.240522,-0.647559 -0.240521,-0.197351 -0.678394,-0.197351 h -1.122435 z m 3.484479,2.016683 v -4.317058 h 0.653726 v 3.737337 h 2.374381 v 0.579721 z m 3.731168,0 v -4.317058 h 0.653726 v 4.317058 z m 3.083615,0.06167 q -0.357699,0 -0.672228,-0.04934 -0.308361,-0.04934 -0.55505,-0.117177 l -0.363866,-0.104844 0.11101,-0.499545 0.419371,0.074 q 0.234355,0.04934 0.524214,0.08017 0.296027,0.03083 0.530382,0.03083 0.48721,0 0.7339,-0.166515 0.252855,-0.172682 0.252855,-0.493376 0,-0.166516 -0.08017,-0.283693 -0.08017,-0.117178 -0.308362,-0.228188 -0.228187,-0.11101 -0.672227,-0.240522 -0.524214,-0.154181 -0.832575,-0.302194 -0.308361,-0.15418 -0.444041,-0.363866 -0.129512,-0.215853 -0.129512,-0.555051 0,-0.431705 0.215854,-0.696895 0.22202,-0.271359 0.59822,-0.394703 0.3762,-0.129512 0.832576,-0.129512 0.277525,0 0.573552,0.04317 0.296026,0.04317 0.585886,0.129512 l 0.240521,0.06167 -0.09868,0.493378 -0.320696,-0.04934 q -0.228186,-0.037 -0.474876,-0.06784 -0.246689,-0.03083 -0.481043,-0.03083 -0.487211,0 -0.746235,0.160347 -0.259023,0.160348 -0.259023,0.474877 0,0.160348 0.08017,0.26519 0.08634,0.104843 0.320695,0.191184 0.240523,0.08634 0.696897,0.222021 0.51188,0.135678 0.814074,0.302194 0.308362,0.166514 0.437873,0.388534 0.135679,0.222021 0.135679,0.548883 0,0.450208 -0.222021,0.740068 -0.222019,0.289859 -0.59822,0.431706 -0.376201,0.135678 -0.84491,0.135678 z"
         id="text1"
         aria-label="LUISPLIS" /></g><path
       id="path3-4"
       style="fill:#ffffff;fill-opacity:1;fill-rule:evenodd;stroke:none;stroke-width:0.594754;stroke-linecap:round;stroke-linejoin:round;stroke-opacity:1;paint-order:stroke fill markers"
       d="m 30.176745,2.931442 c -1.567112,-0.08029 -0.968286,1.138329 -2.515625,1.648437 -3.193546,1.053279 -5.985828,3.292508 -6.90039,6.400391 -0.148306,0.510108 -0.254215,1.024232 -0.308594,1.539062 -0.103816,2.163239 -0.044,4.741136 0.119141,6.791016 -0.222462,0.0803 -0.425547,0.181564 -0.603516,0.294922 -0.385599,0.245607 -0.665658,0.566638 -0.853516,0.949219 -0.177967,0.363689 -0.257018,0.778175 -0.242187,1.236328 0.02966,0.972985 0.498585,2.154238 1.408203,3.453125 l 2.486328,3.779297 c 0.870069,1.322504 1.779359,2.668343 2.886719,3.80664 -0.05438,0.151143 0.0054,-0.01519 -0.0293,0.08398 -0.306502,0.887967 -0.819545,2.371839 -1.279297,3.203125 -3.020524,1.889292 -9.938686,2.375503 -12.623047,3.80664 -4.7904812,2.550993 -5.3050172,6.877141 -5.1210942,11.419922 a 32,32 0 0 0 4.2988292,4.691407 L 9.5283078,46.091598 C 9.3701138,44.934407 10.23015,43.986129 11.288074,43.986129 h 9.625 11.359374 c -0.390543,-2.408847 -6.910232,-4.733153 -7.142578,-6.546875 0.06426,-0.04251 0.124393,-0.09793 0.173828,-0.164062 0.553682,-0.736824 1.126,-2.273174 1.521485,-3.392578 1.399031,1.081619 3.079893,1.7902 5.240234,1.794922 1.937881,0.0047 3.484997,-0.509692 4.785157,-1.345704 0.128531,0.174761 0.258065,0.359082 0.396484,0.552735 0.617948,0.869073 1.339393,1.873864 2.011719,2.591797 -0.143364,2.064049 -5.79874,2.088824 -6.441407,6.509765 h 20.134766 c 1.057926,0 1.922904,0.948278 1.759766,2.105469 l -1.316407,9.552734 a 32,32 0 0 0 3.941407,-4.34375 C 57.39011,46.727849 56.891106,42.249285 52.522448,39.923629 49.872693,38.511385 43.100341,38.019097 40.020495,36.191208 39.50142,35.577188 38.942587,34.794862 38.44823,34.10527 38.290035,33.878554 38.136514,33.666109 37.993152,33.472458 l 0.07422,-0.0625 c 1.478129,-1.322503 2.58911,-3.046371 3.681641,-4.765626 l 2.837891,-4.46289 c 0.01483,-0.02361 0.03009,-0.05254 0.04492,-0.07617 0.662437,-1.440584 0.881337,-2.497869 0.683593,-3.244141 C 45.127564,20.166812 44.692148,19.749776 43.995105,19.546676 44.09892,15.404405 44.894347,11.220021 41.809558,7.82402 39.614614,5.405727 33.889369,3.125094 30.176745,2.931442 Z m 2.837891,5.390625 h 0.882812 l -2.941406,4.023437 h -0.876953 z m -3.476562,0.400391 v 0.804687 l -1.347657,0.804687 1.347657,0.771485 v 0.849609 L 27.034167,10.536911 V 10.16777 Z m 4.863281,0 2.503906,1.445312 v 0.369141 l -2.503906,1.416015 v -0.849609 l 1.347656,-0.771485 -1.347656,-0.804687 z m -6.775391,5.986328 h 0.002 c 5.003281,0.118451 9.330864,2.757254 14.669922,1.953125 l -0.958984,4.05664 c 0.262009,0.03307 0.520398,0.05322 0.767578,0.03906 0.06921,0.01417 0.142642,0.0184 0.216797,0.01367 0.133475,-0.01417 0.267037,-0.01872 0.390625,-0.02344 0.113703,0 0.233038,-8.05e-4 0.341797,0.0039 0.524018,0.02361 0.831181,0.157375 0.90039,0.421875 0.118647,0.448708 -0.06973,1.207405 -0.59375,2.345703 l -2.804687,4.40625 c -1.043094,1.63896 -2.099745,3.282722 -3.439453,4.482422 -1.290272,1.152468 -2.876647,1.918786 -5.046875,1.914063 -2.00709,-0.0047 -3.52076,-0.740966 -4.771485,-1.832031 -1.300159,-1.133575 -2.343195,-2.679158 -3.341797,-4.195313 l -2.486328,-3.777344 -0.0098,-0.01563 c -0.766255,-1.08635 -1.167726,-2.031252 -1.1875,-2.753906 -0.0049,-0.245607 0.0351,-0.461959 0.11914,-0.636719 0.0791,-0.160588 0.198191,-0.292572 0.361328,-0.396484 0.286726,-0.184205 0.70218,-0.293607 1.25586,-0.3125 0.262009,0.03779 0.548846,0.04819 0.865234,0.0293 l -0.539062,-4.78125 c 1.879793,-0.741577 3.621302,-0.980888 5.289062,-0.941406 z" /></g></svg>
