<?xml version="1.0" encoding="UTF-8" standalone="no"?>
<svg
   version="1.1"
   id="Layer_1"
   x="0px"
   y="0px"
   viewBox="0 0 76.999997 88.000002"
   xml:space="preserve"
   sodipodi:docname="logo-black.svg"
   inkscape:version="1.3.2 (091e20e, 2023-11-25, custom)"
   width="77"
   height="88"
   xmlns:inkscape="http://www.inkscape.org/namespaces/inkscape"
   xmlns:sodipodi="http://sodipodi.sourceforge.net/DTD/sodipodi-0.dtd"
   xmlns="http://www.w3.org/2000/svg"
   xmlns:svg="http://www.w3.org/2000/svg"><defs
     id="defs1"><rect
       x="35.913742"
       y="6.1805043"
       width="32.572929"
       height="18.708553"
       id="rect2" /><rect
       x="30.512432"
       y="97.141617"
       width="61.647568"
       height="18.68108"
       id="rect1" /><rect
       x="30.512432"
       y="97.141617"
       width="128.03702"
       height="35.200195"
       id="rect1-8" /></defs><sodipodi:namedview
     id="namedview1"
     pagecolor="#ffffff"
     bordercolor="#000000"
     borderopacity="0.25"
     inkscape:showpageshadow="2"
     inkscape:pageopacity="0.0"
     inkscape:pagecheckerboard="0"
     inkscape:deskcolor="#000000"
     inkscape:zoom="4.3491372"
     inkscape:cx="46.79089"
     inkscape:cy="46.905855"
     inkscape:window-width="1440"
     inkscape:window-height="830"
     inkscape:window-x="-6"
     inkscape:window-y="-6"
     inkscape:window-maximized="1"
     inkscape:current-layer="g1" /><style
     type="text/css"
     id="style1"><![CDATA[
	.st0{fill-rule:evenodd;clip-rule:evenodd;}
]]></style><g
     id="g1"><path
       id="path1"
       style="fill:#000000;stroke-width:0.732606"
       class="st0"
       d="m 35.808616,0.0057368 c -2.375916,-0.121735 -1.468909,1.7259563 -3.814844,2.4993373 -4.841771,1.5968881 -9.075698,4.9917403 -10.462274,9.7036349 -0.224849,0.773381 -0.383064,1.553759 -0.465508,2.3343 -0.157396,3.279709 -0.06729,7.188806 0.180055,10.296651 -0.337276,0.121737 -0.645098,0.2729 -0.914918,0.444762 -0.58461,0.372368 -1.010713,0.859146 -1.295525,1.439181 -0.26982,0.551393 -0.389915,1.180943 -0.367429,1.875552 0.04497,1.475153 0.756703,3.265784 2.135785,5.23504 l 3.769461,5.728754 c 1.319121,2.005063 2.698089,4.046327 4.376969,5.772112 -0.08244,0.229149 0.0086,-0.0217 -0.04392,0.128671 -0.46469,1.346257 -1.244056,3.594294 -1.941091,4.854616 C 22.385929,53.182723 11.899466,53.920696 7.829679,56.090459 -3.2779113,62.005392 0.73161463,74.200212 0.59670423,84.268492 0.81405943,86.517011 2.148408,87.806672 4.77166,88 H 7.61303 L 4.502309,65.443042 C 4.2624699,63.688613 5.567012,62.248591 7.170941,62.248591 h 14.591851 17.223884 c -0.592107,-3.652079 -10.477441,-7.174819 -10.829704,-9.92462 0.09743,-0.06445 0.18708,-0.1501 0.262031,-0.250351 0.839442,-1.117107 1.708923,-3.445592 2.308522,-5.142733 2.121086,1.639854 4.669102,2.714558 7.944417,2.721718 2.938042,0.0072 5.283752,-0.773104 7.254938,-2.040589 0.194869,0.264956 0.390325,0.544175 0.600184,0.837774 0.936877,1.317612 2.031384,2.843062 3.050704,3.931527 -0.217356,3.129326 -8.792583,3.164638 -9.766935,9.867274 h 30.527526 c 1.603932,0 2.91597,1.440022 2.668634,3.194451 L 69.896272,88 h 2.839905 C 75.35943,87.806672 76.693601,86.517011 76.918452,84.268492 76.176445,74.751603 79.91012,61.532771 69.686938,56.090459 65.669617,53.94934 55.400684,53.204317 50.731297,50.433036 49.944322,49.502114 49.097619,48.313453 48.348118,47.267955 48.108277,46.924229 47.87599,46.602099 47.658635,46.308502 l 0.112721,-0.0937 c 2.241005,-2.00506 3.926799,-4.618698 5.583196,-7.225277 l 4.30231,-6.766535 c 0.02249,-0.0358 0.04485,-0.07887 0.06733,-0.114687 1.004329,-2.184084 1.334755,-3.787522 1.034954,-4.918951 C 58.474341,26.136689 57.814836,25.50563 56.758042,25.197709 56.915437,18.917569 58.122188,12.572738 53.445307,7.4240263 50.11753,3.7576272 41.437363,0.29933481 35.808616,0.0057368 Z m 4.302458,8.1737316 h 1.339442 l -4.46041,6.1007866 H 35.65945 Z m -5.27154,0.606815 v 1.2209946 l -2.042097,1.2196 2.042097,1.169247 v 1.28813 l -3.795812,-2.148283 v -0.558048 z m 7.374971,0 3.795813,2.1916406 v 0.558048 l -3.795813,2.148283 v -1.28813 l 2.042098,-1.169247 -2.042098,-1.2196 z M 31.942537,17.860539 c 7.585528,0.179584 14.148889,4.181429 22.243491,2.96228 l -1.453622,6.151138 c 0.397236,0.05013 0.787562,0.07882 1.162313,0.05735 0.104925,0.02148 0.216944,0.02815 0.32937,0.02099 0.202364,-0.02148 0.405492,-0.02781 0.592865,-0.03496 0.172386,0 0.351857,-1.68e-4 0.516747,0.007 0.79447,0.0358 1.259397,0.236759 1.364326,0.637771 0.179881,0.68029 -0.105814,1.832307 -0.900279,3.558093 l -4.249613,6.681216 c -1.581446,2.484843 -3.18462,4.977022 -5.215765,6.795901 -1.956195,1.747268 -4.362801,2.907902 -7.653108,2.900741 -3.04297,-0.0072 -5.336741,-1.124887 -7.232977,-2.779061 -1.971186,-1.718626 -3.552459,-4.059475 -5.06645,-6.358133 l -3.769463,-5.728754 -0.01464,-0.02237 c -1.161726,-1.647026 -1.769118,-3.079273 -1.799097,-4.174897 -0.0075,-0.372368 0.05264,-0.701493 0.180056,-0.966448 0.119921,-0.243471 0.300154,-0.443866 0.547489,-0.601407 0.434708,-0.279276 1.063588,-0.444088 1.903027,-0.472733 0.397235,0.05729 0.831949,0.072 1.311628,0.04336 L 23.922,19.290022 c 2.849974,-1.124314 5.492027,-1.489299 8.020536,-1.429439 z"
       sodipodi:nodetypes="cccccsccccccccccccsccccccccccscccccccccccccccccccccccccccccccccccccscccccccccccccccccccccs" /></g></svg>
