<?xml version="1.0" encoding="UTF-8" standalone="no"?>
<svg
   version="1.1"
   id="Layer_1"
   x="0px"
   y="0px"
   viewBox="0 0 102.73 122.88"
   style="enable-background:new 0 0 102.73 122.88"
   xml:space="preserve"
   sodipodi:docname="developer-white.svg"
   inkscape:version="1.3.2 (091e20e, 2023-11-25, custom)"
   xmlns:inkscape="http://www.inkscape.org/namespaces/inkscape"
   xmlns:sodipodi="http://sodipodi.sourceforge.net/DTD/sodipodi-0.dtd"
   xmlns="http://www.w3.org/2000/svg"
   xmlns:svg="http://www.w3.org/2000/svg"><defs
     id="defs1"><rect
       x="35.913741"
       y="6.1805043"
       width="32.572928"
       height="18.708554"
       id="rect2" /><rect
       x="30.512432"
       y="97.141619"
       width="61.647566"
       height="18.68108"
       id="rect1" /><rect
       x="30.512432"
       y="97.141617"
       width="128.03702"
       height="35.200195"
       id="rect1-8" /></defs><sodipodi:namedview
     id="namedview1"
     pagecolor="#000000"
     bordercolor="#000000"
     borderopacity="0.25"
     inkscape:showpageshadow="2"
     inkscape:pageopacity="0.0"
     inkscape:pagecheckerboard="0"
     inkscape:deskcolor="#ffffff"
     inkscape:zoom="2.932325"
     inkscape:cx="101.45533"
     inkscape:cy="64.112948"
     inkscape:window-width="1440"
     inkscape:window-height="830"
     inkscape:window-x="-6"
     inkscape:window-y="-6"
     inkscape:window-maximized="1"
     inkscape:current-layer="g1" /><style
     type="text/css"
     id="style1"><![CDATA[
	.st0{fill-rule:evenodd;clip-rule:evenodd;}
]]></style><g
     id="g1"><path
       id="path1"
       style="fill:#ffffff"
       class="st0"
       d="M 47.769531,0.00976563 C 44.599534,-0.1602342 45.809684,2.4200011 42.679688,3.5 36.219694,5.7299978 30.570701,10.470788 28.720703,17.050781 c -0.3,1.079999 -0.511094,2.169767 -0.621094,3.259766 -0.209999,4.579995 -0.08976,10.03891 0.240235,14.378906 -0.45,0.17 -0.860704,0.381094 -1.220703,0.621094 -0.78,0.519999 -1.348516,1.199766 -1.728516,2.009765 -0.36,0.77 -0.520234,1.649142 -0.490234,2.619141 0.06,2.059998 1.009611,4.56055 2.849609,7.310547 l 5.029297,8 c 1.759998,2.799997 3.599846,5.650549 5.839844,8.060547 -0.11,0.32 0.01141,-0.03031 -0.05859,0.179687 -0.62,1.879998 -1.659845,5.019299 -2.589844,6.779297 -6.109994,3.999996 -20.101255,5.03055 -25.53125,8.060547 -14.8199851,8.259992 -9.47039068,25.289622 -9.6503905,39.349612 0.2899997,3.13999 2.070316,4.94094 5.5703125,5.21093 h 3.791016 L 6,91.390625 C 5.6800003,88.940627 7.420549,86.929688 9.5605469,86.929688 H 29.029297 52.009766 c -0.79,-5.099995 -13.97922,-10.019379 -14.449219,-13.859376 0.13,-0.09 0.249609,-0.209609 0.349609,-0.349609 1.119999,-1.559998 2.280079,-4.811643 3.080078,-7.181641 2.829998,2.289998 6.229614,3.790782 10.59961,3.800782 3.919996,0.01 7.04969,-1.079611 9.679687,-2.84961 0.26,0.37 0.520782,0.759923 0.800781,1.169922 1.249999,1.839998 2.710314,3.970236 4.070313,5.490235 -0.29,4.369995 -11.731251,4.419306 -13.03125,13.779297 h 40.730469 c 2.139998,0 3.890546,2.010939 3.560547,4.460937 L 93.25,122.89062 h 3.789062 c 3.499998,-0.26999 5.280078,-2.07094 5.580078,-5.21093 -0.99,-13.28999 3.99155,-31.749619 -9.648437,-39.349612 C 87.610708,75.340081 73.909681,74.299684 67.679688,70.429688 66.629689,69.129689 65.499999,67.469764 64.5,66.009766 c -0.32,-0.48 -0.629922,-0.929845 -0.919922,-1.339844 l 0.150391,-0.13086 c 2.989997,-2.799997 5.239221,-6.449847 7.449219,-10.089843 L 76.919922,45 c 0.03,-0.05 0.05984,-0.110156 0.08984,-0.160156 1.339998,-3.049997 1.780859,-5.289142 1.380859,-6.869141 -0.38,-1.469998 -1.259923,-2.35125 -2.669922,-2.78125 0.21,-8.769991 1.820072,-17.63032 -4.419922,-24.820312 C 66.860786,5.2491457 55.279524,0.41976522 47.769531,0.00976563 Z M 53.509963,11.42409 h 1.78711 l -5.951172,8.519531 H 47.57051 Z m -7.033401,0.847394 v 1.705078 l -2.724609,1.703126 2.724609,1.632812 v 1.798828 l -5.064453,-3 v -0.779297 z m 9.839844,0 5.064453,3.060547 v 0.779297 l -5.064453,3 V 17.3125 l 2.72461,-1.632812 -2.72461,-1.703126 z M 42.611328,24.943359 c 10.120771,0.250781 18.877745,5.839217 29.677734,4.136719 l -1.939453,8.589844 c 0.53,0.07 1.050782,0.110078 1.550782,0.08008 0.139999,0.03 0.289453,0.0393 0.439453,0.0293 0.269999,-0.03 0.541016,-0.03883 0.791015,-0.04883 0.23,0 0.469454,-2.35e-4 0.689453,0.0098 1.059999,0.05 1.680313,0.330626 1.820313,0.890625 0.24,0.949999 -0.141173,2.558753 -1.201172,4.96875 l -5.669922,9.330079 c -2.109998,3.469996 -4.248987,6.950236 -6.958984,9.490234 -2.609998,2.439997 -5.820942,4.060781 -10.210938,4.050781 -4.059996,-0.01 -7.120393,-1.570862 -9.65039,-3.880859 -2.629998,-2.399998 -4.739768,-5.66891 -6.759766,-8.878906 l -5.029297,-8 -0.01953,-0.03125 C 28.590627,43.37969 27.780234,41.379608 27.740234,39.849609 27.730234,39.32961 27.810469,38.87 27.980469,38.5 c 0.16,-0.34 0.400469,-0.619844 0.730469,-0.839844 C 29.290937,37.270157 30.130001,37.04 31.25,37 c 0.529999,0.08 1.110001,0.100547 1.75,0.06055 L 31.910156,26.939453 c 3.802496,-1.569998 7.327582,-2.079687 10.701172,-1.996094 z"
       sodipodi:nodetypes="cccccsccccccccccccsccccccccccscccccccccccccccccccccccccccccccccccccscccccccccccccccccccccs" /></g></svg>
