<?xml version="1.0" encoding="UTF-8" standalone="no"?>
<svg
   version="1.1"
   id="Layer_1"
   x="0px"
   y="0px"
   viewBox="0 0 63.999998 64.000001"
   xml:space="preserve"
   sodipodi:docname="favicon.svg"
   inkscape:version="1.3.2 (091e20e, 2023-11-25, custom)"
   width="64"
   height="64"
   xmlns:inkscape="http://www.inkscape.org/namespaces/inkscape"
   xmlns:sodipodi="http://sodipodi.sourceforge.net/DTD/sodipodi-0.dtd"
   xmlns="http://www.w3.org/2000/svg"
   xmlns:svg="http://www.w3.org/2000/svg"><defs
     id="defs1"><rect
       x="35.913742"
       y="6.1805043"
       width="32.572929"
       height="18.708553"
       id="rect2" /><rect
       x="30.512432"
       y="97.141617"
       width="61.647568"
       height="18.68108"
       id="rect1" /><rect
       x="30.512432"
       y="97.141617"
       width="128.03702"
       height="35.200195"
       id="rect1-8" /></defs><sodipodi:namedview
     id="namedview1"
     pagecolor="#ffffff"
     bordercolor="#000000"
     borderopacity="0.25"
     inkscape:showpageshadow="2"
     inkscape:pageopacity="0.0"
     inkscape:pagecheckerboard="0"
     inkscape:deskcolor="#ffffff"
     inkscape:zoom="4.1469338"
     inkscape:cx="8.5605418"
     inkscape:cy="41.476428"
     inkscape:window-width="1440"
     inkscape:window-height="830"
     inkscape:window-x="-6"
     inkscape:window-y="-6"
     inkscape:window-maximized="1"
     inkscape:current-layer="g1" /><style
     type="text/css"
     id="style1"><![CDATA[
	.st0{fill-rule:evenodd;clip-rule:evenodd;}
]]></style><g
     id="g1"><path
       id="path1"
       style="fill:#0080ff;stroke-width:0.821971;fill-opacity:1"
       class="st0"
       d="m 28.757182,3.5096229 c -2.605642,-0.1397342 -1.61094,1.9811433 -4.183701,2.8688703 -5.30992,1.83299 -9.953232,5.7297888 -11.473874,11.1383428 -0.246592,0.887727 -0.420104,1.783486 -0.510521,2.679432 -0.172612,3.764617 -0.07378,8.251691 0.197466,11.819037 -0.369887,0.139735 -0.707474,0.313248 -1.003382,0.510521 -0.641137,0.427423 -1.10844,0.986173 -1.420789,1.651968 -0.295909,0.632917 -0.4276176,1.355547 -0.4029586,2.152856 0.04932,1.693256 0.8298726,3.748641 2.3422956,6.009055 l 4.133933,6.575764 c 1.446665,2.301513 2.958969,4.644586 4.80018,6.625532 l 1.948972,1.831774 c 2.326173,1.882309 5.120562,3.115911 8.712567,3.124131 3.222118,0.0082 5.79464,-0.88741 7.956418,-2.342296 l 1.899201,-1.496243 0.123617,-0.107563 c 2.457687,-2.301512 4.306487,-5.301587 6.123039,-8.293553 l 4.718303,-7.76698 c 0.02466,-0.0411 0.04919,-0.09055 0.07385,-0.131644 1.101437,-2.507005 1.463814,-4.347519 1.135025,-5.646231 -0.312348,-1.208294 -1.03562,-1.932658 -2.194597,-2.286106 0.17261,-7.208667 1.496037,-14.49161 -3.63305,-20.401565 C 44.449639,7.8162432 34.930169,3.84663 28.757182,3.5096229 Z m 4.718304,9.3820241 h 1.468951 L 30.052749,19.89445 H 28.59343 Z M 27.6944,13.588395 v 1.401524 l -2.239549,1.399919 2.239549,1.342124 v 1.478583 l -4.162832,-2.465911 v -0.64056 z m 8.088062,0 4.162831,2.515679 v 0.64056 l -4.162831,2.465911 v -1.478583 l 2.239549,-1.342124 -2.239549,-1.399919 z M 24.517291,24.004303 c 8.318968,0.206134 15.51696,4.799663 24.394223,3.400261 l -1.594173,7.060599 c 0.435644,0.05754 0.863712,0.09048 1.274697,0.06582 0.115074,0.02466 0.237922,0.0323 0.361218,0.02408 0.22193,-0.02466 0.4447,-0.03192 0.650191,-0.04014 0.189053,0 0.385878,-2.22e-4 0.56671,0.0081 0.871287,0.0411 1.381167,0.271766 1.496243,0.732068 0.197273,0.78087 -0.116041,2.103222 -0.987328,4.084166 l -4.660509,7.66905 c -1.734354,2.852231 -3.492544,5.712891 -5.720079,7.800693 -2.14534,2.005603 -4.784647,3.337842 -8.393091,3.329623 -3.337193,-0.0082 -5.852755,-1.291205 -7.932336,-3.189952 -2.161779,-1.972726 -3.895951,-4.659681 -5.556328,-7.298199 l -4.133934,-6.575765 -0.01605,-0.02569 c -1.274051,-1.89056 -1.940171,-3.53454 -1.97305,-4.792153 -0.0082,-0.427424 0.05774,-0.80521 0.197466,-1.109339 0.131515,-0.27947 0.329174,-0.509494 0.600424,-0.690327 0.476741,-0.320567 1.166429,-0.50975 2.087034,-0.542629 0.435643,0.06576 0.912389,0.08264 1.438448,0.04977 l -0.89582,-8.319275 c 3.125536,-1.29049 6.023059,-1.709441 8.796048,-1.64073 z"
       sodipodi:nodetypes="cccccsccccccccccccccccccccccccccccccccccccccscccccccccccccccccccccs" /></g></svg>
