<?xml version="1.0" encoding="UTF-8" standalone="no"?>
<!-- Created with Inkscape (http://www.inkscape.org/) -->

<svg
   version="1.1"
   id="svg1"
   width="700"
   height="500"
   viewBox="0 0 700 499.99999"
   xml:space="preserve"
   sodipodi:docname="image.svg"
   inkscape:version="1.3.2 (091e20e, 2023-11-25, custom)"
   xmlns:inkscape="http://www.inkscape.org/namespaces/inkscape"
   xmlns:sodipodi="http://sodipodi.sourceforge.net/DTD/sodipodi-0.dtd"
   xmlns:xlink="http://www.w3.org/1999/xlink"
   xmlns="http://www.w3.org/2000/svg"
   xmlns:svg="http://www.w3.org/2000/svg"><sodipodi:namedview
     id="namedview1"
     pagecolor="#ffffff"
     bordercolor="#000000"
     borderopacity="0.25"
     inkscape:showpageshadow="2"
     inkscape:pageopacity="0.0"
     inkscape:pagecheckerboard="0"
     inkscape:deskcolor="#d1d1d1"
     inkscape:zoom="1.1528571"
     inkscape:cx="350.00001"
     inkscape:cy="249.81414"
     inkscape:window-width="1440"
     inkscape:window-height="830"
     inkscape:window-x="-6"
     inkscape:window-y="-6"
     inkscape:window-maximized="1"
     inkscape:current-layer="g22-9-1" /><defs
     id="defs1"><linearGradient
       id="linearGradient20"><stop
         style="stop-color:#0077ff;stop-opacity:1;"
         offset="0"
         id="stop20" /><stop
         style="stop-color:#000000;stop-opacity:0.89999998;"
         offset="1"
         id="stop21" /></linearGradient><rect
       x="93.507812"
       y="427.25781"
       width="641.48438"
       height="114.21094"
       id="rect19" /><rect
       x="231.00847"
       y="321.83301"
       width="386.74045"
       height="104.26234"
       id="rect16" /><rect
       x="231.00847"
       y="321.83301"
       width="386.74045"
       height="104.26234"
       id="rect16-2" /><rect
       x="231.00847"
       y="321.83301"
       width="386.74045"
       height="104.26234"
       id="rect16-3" /><rect
       x="231.00847"
       y="321.83301"
       width="386.74045"
       height="104.26234"
       id="rect16-28" /><rect
       x="231.00847"
       y="321.83301"
       width="386.74045"
       height="104.26234"
       id="rect16-3-8" /><rect
       x="231.00847"
       y="321.83301"
       width="386.74045"
       height="104.26234"
       id="rect16-2-9" /><radialGradient
       xlink:href="#linearGradient20"
       id="radialGradient21"
       cx="245.6187"
       cy="371.35944"
       fx="245.6187"
       fy="371.35944"
       r="14.688"
       gradientTransform="matrix(0.68727853,0.79291757,-1.0991165,1.1351678,488.57978,-250.37023)"
       gradientUnits="userSpaceOnUse" /><rect
       x="231.00847"
       y="321.83301"
       width="386.74045"
       height="104.26234"
       id="rect16-8" /><rect
       x="231.00847"
       y="321.83301"
       width="386.74045"
       height="104.26234"
       id="rect16-3-1" /><rect
       x="231.00847"
       y="321.83301"
       width="386.74045"
       height="104.26234"
       id="rect16-2-99" /><rect
       x="93.507812"
       y="427.25781"
       width="641.48438"
       height="114.21094"
       id="rect19-7" /><rect
       x="231.00847"
       y="321.83301"
       width="386.74045"
       height="104.26234"
       id="rect16-8-4" /><rect
       x="231.00847"
       y="321.83301"
       width="386.74045"
       height="104.26234"
       id="rect16-3-1-0" /><rect
       x="231.00847"
       y="321.83301"
       width="386.74045"
       height="104.26234"
       id="rect16-2-99-6" /><rect
       x="93.507812"
       y="427.25781"
       width="641.48438"
       height="114.21094"
       id="rect19-7-4" /><rect
       x="231.00847"
       y="321.83301"
       width="386.74045"
       height="104.26234"
       id="rect16-8-6" /><rect
       x="231.00847"
       y="321.83301"
       width="386.74045"
       height="104.26234"
       id="rect16-3-1-2" /><rect
       x="231.00847"
       y="321.83301"
       width="386.74045"
       height="104.26234"
       id="rect16-2-99-8" /><rect
       x="93.507812"
       y="427.25781"
       width="641.48438"
       height="114.21094"
       id="rect19-7-9" /><rect
       x="231.00847"
       y="321.83301"
       width="386.74045"
       height="104.26234"
       id="rect16-9" /><rect
       x="231.00847"
       y="321.83301"
       width="386.74045"
       height="104.26234"
       id="rect16-3-0" /><rect
       x="231.00847"
       y="321.83301"
       width="386.74045"
       height="104.26234"
       id="rect16-2-994" /><rect
       x="93.507812"
       y="427.25781"
       width="641.48438"
       height="114.21094"
       id="rect19-5" /><rect
       x="231.00847"
       y="321.83301"
       width="386.74045"
       height="104.26234"
       id="rect16-83" /><rect
       x="231.00847"
       y="321.83301"
       width="386.74045"
       height="104.26234"
       id="rect16-3-7" /><rect
       x="231.00847"
       y="321.83301"
       width="386.74045"
       height="104.26234"
       id="rect16-2-93" /><rect
       x="93.507812"
       y="427.25781"
       width="641.48438"
       height="114.21094"
       id="rect19-78" /><rect
       x="231.00847"
       y="321.83301"
       width="386.74045"
       height="104.26234"
       id="rect16-83-2" /><rect
       x="231.00847"
       y="321.83301"
       width="386.74045"
       height="104.26234"
       id="rect16-3-7-9" /><rect
       x="231.00847"
       y="321.83301"
       width="386.74045"
       height="104.26234"
       id="rect16-2-93-1" /><rect
       x="93.507812"
       y="427.25781"
       width="641.48438"
       height="114.21094"
       id="rect19-78-2" /><rect
       x="231.00847"
       y="321.83301"
       width="386.74045"
       height="104.26234"
       id="rect16-83-9" /><rect
       x="231.00847"
       y="321.83301"
       width="386.74045"
       height="104.26234"
       id="rect16-3-7-2" /><rect
       x="231.00847"
       y="321.83301"
       width="386.74045"
       height="104.26234"
       id="rect16-2-93-0" /><rect
       x="93.507812"
       y="427.25781"
       width="641.48438"
       height="114.21094"
       id="rect19-78-23" /><rect
       x="231.00847"
       y="321.83301"
       width="386.74045"
       height="104.26234"
       id="rect16-83-9-7" /><rect
       x="231.00847"
       y="321.83301"
       width="386.74045"
       height="104.26234"
       id="rect16-3-7-2-5" /><rect
       x="231.00847"
       y="321.83301"
       width="386.74045"
       height="104.26234"
       id="rect16-2-93-0-3" /><rect
       x="93.507812"
       y="427.25781"
       width="641.48438"
       height="114.21094"
       id="rect19-78-23-5" /><rect
       x="231.00847"
       y="321.83301"
       width="386.74045"
       height="104.26234"
       id="rect16-83-9-75" /><rect
       x="231.00847"
       y="321.83301"
       width="386.74045"
       height="104.26234"
       id="rect16-3-7-2-9" /><rect
       x="231.00847"
       y="321.83301"
       width="386.74045"
       height="104.26234"
       id="rect16-2-93-0-2" /><rect
       x="93.507812"
       y="427.25781"
       width="641.48438"
       height="114.21094"
       id="rect19-78-23-2" /></defs><g
     id="g1"><g
       id="g2"
       transform="translate(188.06822,191.6139)" /><g
       id="g22-9-1"
       transform="matrix(1.9717166,0,0,1.9770763,-432.47652,-262.0144)"><path
         id="path16-0-27"
         style="fill:#f1f2f3;fill-opacity:0.66666669;stroke-width:3.54539052;stroke-linecap:round;stroke-linejoin:round;stroke-miterlimit:1;stroke:#102030;stroke-opacity:0.65490198;stroke-dasharray:none"
         d="m 294.38636,255.93679 a 39.513024,39.513024 0 0 0 -38.42157,39.43501 39.513024,39.513024 0 0 0 39.51217,39.51392 39.513024,39.513024 0 0 0 18.45595,-4.7341 38.026236,41.974756 0 0 1 -10.76393,-29.19358 38.026236,41.974756 0 0 1 2.59499,-14.94747 29.723329,32.809702 0 0 1 -11.70199,-25.99018 29.723329,32.809702 0 0 1 0.32438,-4.0836 z" /><path
         id="path15-9-0"
         style="fill:#cef50a;fill-opacity:1;stroke:none;stroke-width:4.22658;stroke-linecap:round;stroke-linejoin:round;stroke-miterlimit:1;stroke-dasharray:none;stroke-opacity:0.77;paint-order:normal"
         d="m 333.12879,224.50416 a 33.675194,33.675194 0 0 0 -33.6752,33.67519 33.675194,33.675194 0 0 0 13.25722,26.67575 43.082016,43.082016 0 0 0 -2.93865,15.34022 43.082016,43.082016 0 0 0 43.08202,43.08201 43.082016,43.082016 0 0 0 14.22157,-2.59498 36.110896,37.256724 0 0 1 -16.87441,-31.2538 36.110896,37.256724 0 0 1 9.1105,-24.69794 67.120132,69.249909 0 0 1 -15.46296,-44.0639 67.120132,69.249909 0 0 1 1.48861,-13.68153 33.675194,33.675194 0 0 0 -12.2087,-2.48102 z" /><path
         id="path14-84-8-93"
         style="fill:#6699ff;fill-opacity:1;stroke-width:3.54539052;stroke-linecap:round;stroke-linejoin:round;stroke-miterlimit:1;stroke:#0060ff;stroke-opacity:1;stroke-dasharray:none"
         d="m 417.5987,174.67333 a 66.616029,66.616029 0 0 0 -66.61573,66.61748 66.616029,66.616029 0 0 0 15.34724,42.38769 35.839687,35.839687 0 0 0 -9.04213,23.75814 35.839687,35.839687 0 0 0 35.83886,35.8406 35.839687,35.839687 0 0 0 0.34014,-0.0245 v 0.021 h 84.77537 a 59.444464,59.444464 0 0 0 0.0491,0.004 59.444464,59.444464 0 0 0 0.0491,-0.004 h 0.43834 v -0.0316 A 59.444464,59.444464 0 0 0 537.736,283.8328 59.444464,59.444464 0 0 0 482.05778,224.52335 66.616029,66.616029 0 0 0 417.5987,174.67333 Z" /></g><g
       id="g27"
       transform="translate(-145.4375,-203.60526)"><g
         id="g19-8-9"
         transform="matrix(0.23960037,0,0,0.23960037,97.450945,200.0613)" /></g></g></svg>
